<?xml version="1.0" encoding="UTF-8" standalone="no"?>
<svg
   width="369.91382"
   height="34.181156"
   viewBox="0 0 97.872856 9.0433645"
   version="1.1"
   id="svg186"
   xmlns="http://www.w3.org/2000/svg"
   xmlns:svg="http://www.w3.org/2000/svg">
  <defs
     id="defs190" />
  <path
     d="m 60.945373,2.4915558 c -0.225,-0.117 -0.667,-0.333 -1.48,-0.333 -1.197,0 -1.845,0.638 -1.845,1.403 0,0.48 0.246,0.863 0.599,1.078 0.186,0.108 0.294,0.157 0.755,0.353 0.686,0.285 0.863,0.354 0.863,0.609 0,0.186 -0.216,0.343 -0.687,0.343 -0.264,0 -0.725,-0.05 -1.441,-0.422 v 1 c 0.225,0.128 0.912,0.334 1.618,0.334 1.157,0 1.844,-0.52 1.844,-1.442 0,-0.912 -0.804,-1.245 -1.697,-1.598 -0.46,-0.197 -0.559,-0.265 -0.559,-0.442 0,-0.294 0.5,-0.314 0.628,-0.314 0.431,0 0.912,0.177 1.402,0.442 z"
     id="path510" />
  <path
     d="m 56.611373,2.4915558 c -0.226,-0.117 -0.668,-0.333 -1.482,-0.333 -1.196,0 -1.843,0.638 -1.843,1.403 0,0.48 0.245,0.863 0.598,1.078 0.186,0.108 0.294,0.157 0.755,0.353 0.686,0.285 0.863,0.354 0.863,0.609 0,0.186 -0.216,0.343 -0.686,0.343 -0.265,0 -0.726,-0.05 -1.442,-0.422 v 1 c 0.225,0.128 0.912,0.334 1.618,0.334 1.157,0 1.844,-0.52 1.844,-1.442 0,-0.912 -0.804,-1.245 -1.697,-1.598 -0.46,-0.197 -0.559,-0.265 -0.559,-0.442 0,-0.294 0.5,-0.314 0.628,-0.314 0.431,0 0.912,0.177 1.402,0.442 z"
     id="path508" />
  <path
     d="m 52.369373,5.3565558 c -0.441,0.323 -0.853,0.627 -1.667,0.627 -0.883,0 -1.442,-0.412 -1.5,-1.235 h 3.245 c 0.03,-2.02 -1.382,-2.58 -2.324,-2.58 -1.265,0 -2.393,0.902 -2.393,2.354 0,0.97 0.579,2.344 2.58,2.344 0.323,0 1.225,-0.01 2.059,-0.598 z m -3.138,-1.355 c 0.029,-0.392 0.284,-0.97 0.98,-0.97 0.677,0 0.942,0.568 0.981,0.97 z"
     id="path506" />
  <path
     d="m 46.078373,0.00155579 a 0.78,0.78 0 1 0 -0.008,1.55700001 0.78,0.78 0 0 0 0.008,-1.55700001 z"
     id="path504" />
  <path
     d="m 46.725373,2.2665558 h -1.363 v 4.522 h 1.363 z"
     id="path502" />
  <path
     d="m 42.237373,2.2665558 h -1.422 v 4.522 h 1.422 v -1.952 c 0.02,-0.04 0.098,-0.284 0.117,-0.333 0.255,-0.55 0.53,-0.991 1.06,-0.991 0.362,0 0.686,0.235 0.833,0.333 l 0.392,-1.255 c -0.333,-0.245 -0.608,-0.412 -0.941,-0.412 -0.51,0 -0.98,0.373 -1.461,1.383 z"
     id="path500" />
  <path
     d="M 34.683373,0.10955579 V 6.7985558 h 1.687 v -2.688 h 0.99 c 0.55,0 1.07,0 1.58,-0.313 0.598,-0.363 0.96,-1.01 0.96,-1.707 0,-0.765 -0.45,-1.40200001 -1.02,-1.70600001 -0.51,-0.275 -1.029,-0.275 -1.46,-0.275 z m 2.276,1.23600001 c 0.48,0 1.216,0 1.216,0.755 0,0.785 -0.716,0.785 -1.256,0.785 h -0.549 v -1.54 z"
     id="path498" />
  <path
     d="m 28.881,2.2675558 h -1.422 v 4.52 h 1.422 v -1.95 c 0.02,-0.04 0.098,-0.285 0.118,-0.334 0.255,-0.55 0.53,-0.99 1.059,-0.99 0.363,0 0.686,0.235 0.833,0.333 l 0.393,-1.256 c -0.334,-0.245 -0.608,-0.412 -0.942,-0.412 -0.51,0 -0.98,0.373 -1.461,1.383 z"
     id="path496" />
  <path
     d="m 26.317,5.3665558 c -0.441,0.323 -0.853,0.627 -1.667,0.627 -0.883,0 -1.442,-0.411 -1.5,-1.235 h 3.245 c 0.03,-2.02 -1.383,-2.58 -2.324,-2.58 -1.265,0 -2.393,0.903 -2.393,2.354 0,0.971 0.579,2.344 2.58,2.344 0.323,0 1.225,-0.01 2.059,-0.598 z m -3.138,-1.355 c 0.029,-0.392 0.284,-0.97 0.98,-0.97 0.677,0 0.942,0.568 0.981,0.97 z"
     id="path494" />
  <path
     d="m 21.138,2.2675558 h -2.51 c -0.295,0 -0.835,0 -1.315,0.245 -0.373,0.186 -0.883,0.608 -0.883,1.392 0,0.834 0.687,1.315 1.265,1.413 -0.294,0.068 -0.833,0.196 -0.833,0.676 0,0.324 0.245,0.5 0.559,0.599 -1,0.255 -1.216,0.755 -1.216,1.137 0,0.54 0.421,0.932 0.99,1.138 0.48,0.167 1.06,0.176 1.452,0.176 0.657,0 1.01,-0.058 1.402,-0.225 0.236,-0.098 0.922,-0.441 0.922,-1.275 0,-1.108 -1.128,-1.353 -1.755,-1.393 -0.677,-0.049 -1.02,-0.088 -1.02,-0.323 0,-0.079 0.068,-0.275 0.44,-0.304 0.393,-0.02 0.56,-0.04 0.825,-0.108 1.186,-0.314 1.245,-1.236 1.245,-1.442 0,-0.392 -0.127,-0.608 -0.225,-0.765 h 0.657 z m -1.736,1.637 c 0,0.393 -0.314,0.834 -0.824,0.834 a 0.816,0.816 0 0 1 -0.814,-0.804 c 0,-0.334 0.245,-0.824 0.804,-0.824 0.52,0 0.834,0.412 0.834,0.794 z m 0.304,3.727 c 0,0.128 -0.098,0.304 -0.265,0.402 -0.167,0.098 -0.333,0.167 -0.834,0.167 -0.99,0 -1.088,-0.382 -1.088,-0.52 0,-0.549 0.932,-0.549 1.108,-0.549 0.157,0 1.079,0 1.079,0.5 z"
     id="path492" />
  <path
     d="M 15.297,0.09955579 H 13.865 V 6.7885558 h 1.432 z"
     id="path490" />
  <path
     d="m 12.887,4.5425558 c 0,-1.785 -1.491,-2.364 -2.52,-2.364 -1.423,0 -2.57,0.962 -2.57,2.374 0,1.47 1.176,2.324 2.56,2.324 1.039,0 2.53,-0.569 2.53,-2.334 z m -1.52,-0.088 c 0,0.363 0,1.54 -1.01,1.54 -1.03,0 -1.03,-1.138 -1.03,-1.413 0,-0.412 0,-1.53 0.99,-1.53 1.05,0 1.05,1.089 1.05,1.403 z"
     id="path488" />
  <path
     d="M 6.679,0.09955579 H 5.002 V 2.7865558 H 1.687 V 0.09955579 H 0 V 6.7885558 h 1.687 v -2.707 h 3.315 v 2.707 h 1.677 z"
     id="path182" />
  <path
     d="m 97.793389,5.3845558 c -0.44,0.323 -0.853,0.627 -1.666,0.627 -0.883,0 -1.441,-0.412 -1.5,-1.235 h 3.245 c 0.03,-2.02 -1.383,-2.579 -2.324,-2.579 -1.264,0 -2.392,0.902 -2.392,2.353 0,0.97 0.579,2.343 2.579,2.343 0.323,0 1.225,-0.01 2.058,-0.598 z m -3.137,-1.353 c 0.03,-0.393 0.285,-0.97 0.98,-0.97 0.677,0 0.942,0.568 0.98,0.97 z"
     id="path1096"
     style="fill:#66665e;fill-opacity:1" />
  <path
     d="m 91.485389,0.03155579 a 0.78,0.78 0 1 0 -0.008,1.55700001 0.78,0.78 0 0 0 0.008,-1.55700001 z"
     id="path1094"
     style="fill:#66665e;fill-opacity:1" />
  <path
     d="m 92.132389,2.2965558 h -1.363 v 4.52 h 1.363 z"
     id="path1092"
     style="fill:#66665e;fill-opacity:1" />
  <path
     d="m 87.645389,2.2965558 h -1.422 v 4.52 h 1.422 v -1.953 c 0.02,-0.04 0.098,-0.284 0.117,-0.333 0.255,-0.55 0.53,-0.99 1.06,-0.99 0.362,0 0.685,0.235 0.833,0.333 l 0.392,-1.255 c -0.334,-0.245 -0.608,-0.412 -0.941,-0.412 -0.51,0 -0.98,0.373 -1.461,1.383 z"
     id="path1090"
     style="fill:#66665e;fill-opacity:1" />
  <path
     d="m 85.142389,5.3845558 c -0.442,0.323 -0.853,0.627 -1.667,0.627 -0.882,0 -1.441,-0.412 -1.5,-1.235 h 3.245 c 0.03,-2.02 -1.382,-2.579 -2.323,-2.579 -1.265,0 -2.393,0.902 -2.393,2.353 0,0.97 0.579,2.343 2.579,2.343 0.323,0 1.225,-0.01 2.059,-0.598 z m -3.138,-1.353 c 0.03,-0.393 0.285,-0.97 0.98,-0.97 0.677,0 0.942,0.568 0.981,0.97 z"
     id="path1088"
     style="fill:#66665e;fill-opacity:1" />
  <path
     d="m 79.519389,0.12955579 h -1.432 V 6.8155558 h 1.431 z"
     id="path1086"
     style="fill:#66665e;fill-opacity:1" />
  <path
     d="m 77.407389,5.6975558 c -0.255,0.138 -0.402,0.216 -0.55,0.216 -0.225,0 -0.225,-0.206 -0.225,-0.363 v -1.784 c 0,-0.549 -0.068,-0.706 -0.137,-0.823 -0.402,-0.726 -1.55,-0.736 -1.775,-0.736 -0.627,0 -1.313,0.138 -1.97,0.55 v 1.156 c 0.137,-0.157 0.794,-0.764 1.676,-0.764 0.785,0 0.775,0.529 0.775,0.764 -0.206,0.059 -1.206,0.383 -1.432,0.461 -0.333,0.118 -1.254,0.441 -1.254,1.343 0,0.726 0.588,1.186 1.264,1.186 0.696,0 1.157,-0.284 1.49,-0.5 0.05,0.177 0.138,0.5 0.804,0.5 0.432,0 1,-0.206 1.334,-0.411 z m -2.206,0.02 c -0.363,0.333 -0.755,0.333 -0.794,0.333 a 0.468,0.468 0 0 1 -0.451,-0.48 c 0,-0.402 0.402,-0.598 0.53,-0.657 0.107,-0.049 0.617,-0.245 0.715,-0.284 z"
     id="path1084"
     style="fill:#66665e;fill-opacity:1" />
  <path
     d="m 71.312389,0.59055579 c -0.402,-0.167 -1.304,-0.55 -2.628,-0.55 -2.362,0 -4.039,1.34400001 -4.039,3.43200001 0,2.157 1.824,3.431 3.97,3.431 1.089,0 2.177,-0.323 2.863,-0.902 v -2.754 h -2.656 v 1.244 h 0.96 v 0.784 a 3.33,3.33 0 0 1 -1.196,0.235 c -1.147,0 -2.205,-0.715 -2.205,-1.98 0,-0.843 0.43,-1.422 0.911,-1.716 0.294,-0.186 0.755,-0.382 1.53,-0.382 0.862,0 1.705,0.245 2.49,0.608 z"
     id="path184"
     style="fill:#66665e;fill-opacity:1" />
</svg>
