<svg version="1" xmlns="http://www.w3.org/2000/svg" width="682.667" height="682.667" viewBox="0 0 512.000000 512.000000"><path d="M191 39.7c0 2 1.1 32.6 2.6 68.1 1.4 35.4 2.4 65.2 2.2 66.1-.2 1.4-11.1-2.2-64.8-21.6-35.5-12.8-64.9-23.2-65.4-23-1 .3-41 121.6-40.3 122.3.3.3 29.7 8.8 65.3 18.9 35.7 10.2 65.7 18.8 66.6 19.2 1.4.7-6.1 10.7-41.9 56.1-23.9 30.4-43.3 55.5-43.2 55.6.2.2 24.2 17.1 53.2 37.6 44.7 31.5 53.1 37 54.2 35.9.7-.8 18.3-26.6 38.9-57.4 20.7-30.8 38-56.1 38.4-56.2.4-.2 17.5 25.4 38.1 56.7 20.5 31.4 37.8 57.3 38.2 57.6.6.4 98.4-67.6 106.8-74.2.1-.1-18.9-25.1-42.3-55.5s-42.3-55.5-42-55.8c.2-.3 29.7-8.9 65.5-19.2 35.7-10.3 65.2-18.9 65.5-19.2.6-.6-38.4-120.7-39.7-122.1-.4-.4-29.9 9.7-65.6 22.6-54.5 19.7-64.8 23.2-65.1 21.8-.2-1 .8-30.8 2.2-66.2 1.5-35.5 2.6-66.1 2.6-68.1V36H191v3.7z"/></svg>