<?xml version="1.0" encoding="UTF-8" standalone="no"?>
<!-- Created with Inkscape (http://www.inkscape.org/) -->

<svg
   width="79.26297"
   height="12.948"
   viewBox="0 0 79.262971 12.948"
   version="1.1"
   id="svg1"
   xmlns="http://www.w3.org/2000/svg"
   xmlns:svg="http://www.w3.org/2000/svg">
  <defs
     id="defs1" />
  <path
     style="font-weight:500;font-size:13px;line-height:1.26953px;font-family:Avenir;-inkscape-font-specification:'Avenir Medium';letter-spacing:0px;word-spacing:0px;fill:#ff0000"
     d="m 6.981,2.6130001 q -0.39,-0.507 -0.988,-0.78 -0.598,-0.273 -1.235,-0.273 -0.78,0 -1.417,0.299 -0.624,0.286 -1.079,0.793 -0.442,0.507 -0.689,1.196 -0.247,0.676 -0.247,1.456 0,0.728 0.234,1.378 0.234,0.65 0.676,1.144 0.442,0.494 1.079,0.78 0.637,0.286 1.443,0.286 0.793,0 1.391,-0.325 0.598,-0.325 1.014,-0.91 l 1.053,0.793 q -0.104,0.143 -0.364,0.416 -0.26,0.26 -0.689,0.533 -0.429,0.26 -1.04,0.455 Q 5.525,10.062 4.732,10.062 q -1.092,0 -1.976,-0.4159999 -0.871,-0.416 -1.495,-1.092 -0.611,-0.676 -0.936,-1.521 -0.325,-0.858 -0.325,-1.729 0,-1.066 0.351,-1.963 0.351,-0.91 0.975,-1.56 0.637,-0.663 1.521,-1.02700003 0.884,-0.364 1.95,-0.364 0.91,0 1.781,0.351 Q 7.462,1.0920001 8.021,1.8200001 Z M 9.5160061,6.8664551e-8 H 10.686006 V 9.8280001 H 9.5160061 Z M 12.571003,4.4200001 q 0.494,-0.455 1.144,-0.676 0.65,-0.234 1.3,-0.234 0.676,0 1.157,0.169 0.494,0.169 0.806,0.455 0.312,0.286 0.455,0.663 0.156,0.364 0.156,0.767 v 3.146 q 0,0.325 0.013,0.598 0.013,0.273 0.039,0.52 h -1.04 q -0.039,-0.468 -0.039,-0.936 h -0.026 q -0.39,0.598 -0.923,0.845 -0.533,0.247 -1.235,0.247 -0.429,0 -0.819,-0.117 -0.39,-0.117 -0.689,-0.351 -0.286,-0.234 -0.455,-0.572 -0.169,-0.351 -0.169,-0.806 0,-0.598 0.26,-1.001 0.273,-0.403 0.728,-0.65 0.468,-0.26 1.079,-0.364 0.624,-0.117 1.326,-0.117 h 0.858 v -0.26 q 0,-0.234 -0.091,-0.468 -0.091,-0.234 -0.273,-0.416 -0.182,-0.195 -0.455,-0.299 -0.273,-0.117 -0.65,-0.117 -0.338,0 -0.598,0.065 -0.247,0.065 -0.455,0.169 -0.208,0.091 -0.377,0.221 -0.169,0.13 -0.325,0.247 z m 3.302,2.444 q -0.416,0 -0.858,0.052 -0.429,0.039 -0.793,0.169 -0.351,0.13 -0.585,0.364 -0.221,0.234 -0.221,0.598 0,0.533 0.351,0.767 0.364,0.234 0.975,0.234 0.481,0 0.819,-0.156 0.338,-0.169 0.546,-0.429 0.208,-0.26 0.299,-0.572 0.091,-0.325 0.091,-0.637 v -0.39 z m 8.878988,2.964 h -1.17 v -0.949 h -0.026 q -0.221,0.494 -0.767,0.806 -0.546,0.299 -1.261,0.299 -0.455,0 -0.858,-0.143 -0.403,-0.13 -0.715,-0.416 -0.299,-0.286 -0.481,-0.728 -0.182,-0.455 -0.182,-1.066 v -3.965 h 1.17 v 3.64 q 0,0.429 0.117,0.741 0.117,0.299 0.312,0.494 0.195,0.182 0.442,0.273 0.26,0.078 0.533,0.078 0.364,0 0.676,-0.117 0.312,-0.117 0.546,-0.364 0.234,-0.26 0.364,-0.65 0.13,-0.39 0.13,-0.923 v -3.172 h 1.17 z m 7.942997,0 h -1.17 v -0.884 h -0.026 q -0.338,0.494 -0.936,0.767 -0.585,0.273 -1.209,0.273 -0.715,0 -1.3,-0.247 -0.572,-0.247 -0.988,-0.689 -0.403,-0.442 -0.624,-1.027 -0.221,-0.585 -0.221,-1.274 0,-0.689 0.221,-1.274 0.221,-0.598 0.624,-1.027 0.416,-0.442 0.988,-0.689 0.585,-0.247 1.3,-0.247 0.663,0 1.248,0.286 0.585,0.273 0.897,0.754 h 0.026 V 6.8664551e-8 h 1.17 z m -3.198,-0.936 q 0.468,0 0.845,-0.156 0.377,-0.169 0.637,-0.442 0.26,-0.286 0.403,-0.676 0.143,-0.403 0.143,-0.871 0,-0.468 -0.143,-0.858 -0.143,-0.403 -0.403,-0.676 -0.26,-0.286 -0.637,-0.442 -0.377,-0.169 -0.845,-0.169 -0.468,0 -0.845,0.169 -0.377,0.156 -0.637,0.442 -0.26,0.273 -0.403,0.676 -0.143,0.39 -0.143,0.858 0,0.468 0.143,0.871 0.143,0.39 0.403,0.676 0.26,0.273 0.637,0.442 0.377,0.156 0.845,0.156 z m 5.056999,-5.226 h 1.17 v 6.162 h -1.17 z m -0.273,-2.21 q 0,-0.351 0.247,-0.59800003 0.26,-0.26 0.611,-0.26 0.351,0 0.598,0.26 0.26,0.24700003 0.26,0.59800003 0,0.351 -0.26,0.611 -0.247,0.247 -0.598,0.247 -0.351,0 -0.611,-0.247 -0.247,-0.26 -0.247,-0.611 z m 3.327999,2.964 q 0.494,-0.455 1.144,-0.676 0.65,-0.234 1.3,-0.234 0.676,0 1.157,0.169 0.494,0.169 0.806,0.455 0.312,0.286 0.455,0.663 0.156,0.364 0.156,0.767 v 3.146 q 0,0.325 0.013,0.598 0.013,0.273 0.039,0.52 h -1.04 q -0.039,-0.468 -0.039,-0.936 h -0.026 q -0.39,0.598 -0.923,0.845 -0.533,0.247 -1.235,0.247 -0.429,0 -0.819,-0.117 -0.39,-0.117 -0.689,-0.351 -0.286,-0.234 -0.455,-0.572 -0.169,-0.351 -0.169,-0.806 0,-0.598 0.26,-1.001 0.273,-0.403 0.728,-0.65 0.468,-0.26 1.079,-0.364 0.624,-0.117 1.326,-0.117 h 0.858 v -0.26 q 0,-0.234 -0.091,-0.468 -0.091,-0.234 -0.273,-0.416 -0.182,-0.195 -0.455,-0.299 -0.273,-0.117 -0.65,-0.117 -0.338,0 -0.598,0.065 -0.247,0.065 -0.455,0.169 -0.208,0.091 -0.377,0.221 -0.169,0.13 -0.325,0.247 z m 3.302,2.444 q -0.416,0 -0.858,0.052 -0.429,0.039 -0.793,0.169 -0.351,0.13 -0.585,0.364 -0.221,0.234 -0.221,0.598 0,0.533 0.351,0.767 0.364,0.234 0.975,0.234 0.481,0 0.819,-0.156 0.338,-0.169 0.546,-0.429 0.208,-0.26 0.299,-0.572 0.091,-0.325 0.091,-0.637 v -0.39 z m 7.331989,-6.24000003 h 3.237 q 0.884,0 1.456,0.247 0.572,0.23400003 0.897,0.61100003 0.338,0.364 0.468,0.832 0.13,0.455 0.13,0.884 0,0.429 -0.13,0.897 -0.13,0.455 -0.468,0.832 -0.325,0.364 -0.897,0.611 -0.572,0.234 -1.456,0.234 h -1.989 v 4.056 h -1.248 z m 1.248,4.05600003 h 1.638 q 0.364,0 0.715,-0.052 0.364,-0.065 0.637,-0.221 0.286,-0.156 0.455,-0.442 0.169,-0.299 0.169,-0.767 0,-0.468 -0.169,-0.754 -0.169,-0.299 -0.455,-0.455 -0.273,-0.156 -0.637,-0.208 -0.351,-0.065 -0.715,-0.065 h -1.638 z m 6.996004,2.496 q 0,0.403 0.169,0.741 0.182,0.325 0.468,0.559 0.286,0.234 0.663,0.364 0.377,0.13 0.78,0.13 0.546,0 0.949,-0.247 0.403,-0.26 0.741,-0.676 l 0.884,0.676 q -0.975,1.261 -2.73,1.261 -0.728,0 -1.326,-0.247 -0.585,-0.247 -1.001,-0.676 -0.403,-0.442 -0.624,-1.027 -0.221,-0.598 -0.221,-1.287 0,-0.689 0.234,-1.274 0.247,-0.598 0.663,-1.027 0.429,-0.442 1.014,-0.689 0.585,-0.247 1.274,-0.247 0.819,0 1.378,0.286 0.572,0.286 0.936,0.754 0.364,0.455 0.52,1.04 0.169,0.572 0.169,1.17 v 0.416 z m 3.692,-0.936 q -0.013,-0.39 -0.13,-0.715 -0.104,-0.325 -0.325,-0.559 -0.221,-0.247 -0.559,-0.377 -0.325,-0.143 -0.767,-0.143 -0.429,0 -0.793,0.169 -0.351,0.156 -0.598,0.416 -0.247,0.26 -0.39,0.585 -0.13,0.312 -0.13,0.624 z m 8.826997,3.536 q 0,0.7019999 -0.247,1.2739999 -0.234,0.585 -0.676,1.001 -0.442,0.429 -1.066,0.663 -0.624,0.234 -1.378,0.234 -0.884,0 -1.625,-0.247 -0.728,-0.247 -1.391,-0.858 l 0.793,-0.988 q 0.455,0.494 0.988,0.741 0.533,0.26 1.209,0.26 0.65,0 1.079,-0.195 0.429,-0.182 0.676,-0.481 0.26,-0.299 0.364,-0.689 0.104,-0.377 0.104,-0.7669999 v -0.91 h -0.039 q -0.338,0.559 -0.923,0.832 -0.572,0.26 -1.209,0.26 -0.676,0 -1.261,-0.234 -0.572,-0.247 -0.988,-0.663 -0.416,-0.429 -0.65,-1.001 -0.234,-0.585 -0.234,-1.261 0,-0.676 0.221,-1.261 0.221,-0.598 0.624,-1.04 0.416,-0.442 0.988,-0.689 0.585,-0.247 1.3,-0.247 0.624,0 1.209,0.273 0.598,0.273 0.936,0.767 h 0.026 v -0.884 h 1.17 z m -3.198,-5.174 q -0.468,0 -0.845,0.169 -0.377,0.156 -0.637,0.442 -0.26,0.273 -0.403,0.676 -0.143,0.39 -0.143,0.858 0,0.936 0.546,1.508 0.546,0.559 1.482,0.559 0.936,0 1.482,-0.559 0.546,-0.572 0.546,-1.508 0,-0.468 -0.143,-0.858 -0.143,-0.403 -0.403,-0.676 -0.26,-0.286 -0.637,-0.442 -0.377,-0.169 -0.845,-0.169 z m 5.850001,2.574 q 0,0.403 0.169,0.741 0.182,0.325 0.468,0.559 0.286,0.234 0.663,0.364 0.377,0.13 0.78,0.13 0.546,0 0.949,-0.247 0.403,-0.26 0.741,-0.676 l 0.884,0.676 q -0.975,1.261 -2.73,1.261 -0.728,0 -1.326,-0.247 -0.585,-0.247 -1.001,-0.676 -0.403,-0.442 -0.624,-1.027 -0.221,-0.598 -0.221,-1.287 0,-0.689 0.234,-1.274 0.247,-0.598 0.663,-1.027 0.429,-0.442 1.014,-0.689 0.585,-0.247 1.274,-0.247 0.819,0 1.378,0.286 0.572,0.286 0.936,0.754 0.364,0.455 0.52,1.04 0.169,0.572 0.169,1.17 v 0.416 z m 3.692,-0.936 q -0.013,-0.39 -0.13,-0.715 -0.104,-0.325 -0.325,-0.559 -0.221,-0.247 -0.559,-0.377 -0.325,-0.143 -0.767,-0.143 -0.429,0 -0.793,0.169 -0.351,0.156 -0.598,0.416 -0.247,0.26 -0.39,0.585 -0.13,0.312 -0.13,0.624 z M 78.092973,6.8664551e-8 h 1.17 V 9.8280001 h -1.17 z"
     id="text1"
     aria-label="Claudia Pegel" />
</svg>
