<?xml version="1.0" encoding="UTF-8" standalone="no"?>
<!-- Created with Inkscape (http://www.inkscape.org/) -->

<svg
   width="108.15321"
   height="10.9728"
   viewBox="0 0 108.15321 10.9728"
   version="1.1"
   id="svg1"
   xmlns="http://www.w3.org/2000/svg"
   xmlns:svg="http://www.w3.org/2000/svg">
  <defs
     id="defs1" />
  <g
     id="layer1"
     transform="translate(-50.923393,-29.008072)">
    <path
       style="fill:#ff0000;stroke-width:0;paint-order:markers stroke fill"
       d=" M 55.304893,36.932872 H 54.149193 L 53.298293,39.980871 H 54.263493 Z M 64.753681,30.417772 C 63.991681,29.427172 62.797881,29.008072 61.578681,29.008072 58.911681,29.008072 57.006681,31.090872 57.006681,33.732472 57.006681,36.462972 59.000581,38.456871 61.578681,38.456871 63.013781,38.456871 64.182181,37.961571 64.982281,36.882072 L 64.182181,36.208972 C 63.547181,37.021772 62.670881,37.466271 61.578681,37.466271 59.559381,37.466271 58.149681,35.815272 58.149681,33.732472 58.149681,31.763972 59.572081,29.998672 61.578681,29.998672 62.442281,29.998672 63.293181,30.366972 63.826581,31.090872 Z M 66.468187,38.228271 H 71.649787 V 37.237671 H 67.534987 V 29.236672 H 66.468187 Z M 71.776786,38.228271 H 72.983286 L 73.910386,36.018472 H 78.406186 L 79.320586,38.228271 H 80.565186 L 76.742486,29.236672 H 75.739186 Z M 77.999786,35.027872 H 74.329486 L 76.196386,30.608272 H 76.221786 Z M 88.502692,29.236672 H 87.435892 V 34.646872 C 87.435892,36.094672 86.902492,37.466271 85.111792,37.466271 83.321092,37.466271 82.787692,36.094672 82.787692,34.646872 V 29.236672 H 81.720892 V 34.799272 C 81.720892,36.755072 82.635292,38.456871 85.111792,38.456871 87.588292,38.456871 88.502692,36.755072 88.502692,34.799272 Z M 90.534699,38.228271 H 93.989099 C 95.754399,38.228271 98.395999,37.047172 98.395999,33.732472 98.395999,30.417772 95.754399,29.236672 93.989099,29.236672 H 90.534699 Z M 91.601499,30.227272 H 93.633499 C 95.690899,30.227272 97.252999,31.268672 97.252999,33.732472 97.252999,36.196272 95.690899,37.237671 93.633499,37.237671 H 91.601499 Z M 100.11049,38.228271 H 101.17729 V 29.236672 H 100.11049 Z M 102.37109,38.228271 H 103.57759 L 104.50469,36.018472 H 109.00049 L 109.91489,38.228271 H 111.15949 L 107.33679,29.236672 H 106.33349 Z M 108.59409,35.027872 H 104.92379 L 106.79069,30.608272 H 106.81609 Z M 115.88389,38.228271 H 116.95069 V 34.189672 H 118.75409 C 120.02409,34.189672 121.70049,33.668972 121.70049,31.700472 121.70049,29.820872 120.20189,29.236672 118.55089,29.236672 H 115.88389 Z M 116.95069,30.227272 H 118.75409 C 119.82089,30.227272 120.55749,30.709872 120.55749,31.713172 120.55749,32.716472 119.82089,33.199072 118.75409,33.199072 H 116.95069 Z M 123.415,38.228271 H 129.2951 V 37.237671 H 124.4818 V 34.037272 H 128.7617 V 33.046672 H 124.4818 V 30.227272 H 129.0665 V 29.236672 H 123.415 Z M 138.5915,33.199072 H 135.4546 V 34.189672 H 137.5247 V 36.945572 C 136.8643,37.275771 136.0134,37.466271 135.2895,37.466271 133.0797,37.466271 131.5684,35.878772 131.5684,33.732472 131.5684,31.548072 133.1305,29.998672 135.1879,29.998672 136.1023,29.998672 137.0294,30.366972 137.639,31.027372 L 138.4391,30.189172 C 137.5882,29.325572 136.4452,29.008072 135.2641,29.008072 132.5717,29.008072 130.4254,30.900372 130.4254,33.732472 130.4254,36.551872 132.432,38.456871 135.226,38.456871 136.3944,38.456871 137.5628,38.190171 138.5915,37.618671 Z M 140.8267,38.228271 H 146.7068 V 37.237671 H 141.8935 V 34.037272 H 146.1734 V 33.046672 H 141.8935 V 30.227272 H 146.4782 V 29.236672 H 140.8267 Z M 148.35781,38.228271 H 153.53941 V 37.237671 H 149.42461 V 29.236672 H 148.35781 Z M 154.69511,32.284672 H 155.85081 L 156.70171,29.236672 H 155.73651 Z M 157.07001,32.284672 H 158.22571 L 159.07661,29.236672 H 158.11141 Z"
       id="text1"
       aria-label="„CLAUDIA PEGEL“" />
  </g>
</svg>
