<?xml version="1.0" encoding="UTF-8" standalone="no"?>
<!-- Created with Inkscape (http://www.inkscape.org/) -->

<svg
   width="33.106995"
   height="8.448"
   viewBox="0 0 33.106994 8.4479998"
   version="1.1"
   id="svg1"
   sodipodi:docname="parade.svg"
   inkscape:version="1.3 (0e150ed6c4, 2023-07-21)"
   xmlns:inkscape="http://www.inkscape.org/namespaces/inkscape"
   xmlns:sodipodi="http://sodipodi.sourceforge.net/DTD/sodipodi-0.dtd"
   xmlns="http://www.w3.org/2000/svg"
   xmlns:svg="http://www.w3.org/2000/svg">
  <sodipodi:namedview
     id="namedview1"
     pagecolor="#ffffff"
     bordercolor="#666666"
     borderopacity="1.0"
     inkscape:showpageshadow="2"
     inkscape:pageopacity="0.0"
     inkscape:pagecheckerboard="0"
     inkscape:deskcolor="#d1d1d1"
     showgrid="false"
     inkscape:zoom="26.791921"
     inkscape:cx="18.792978"
     inkscape:cy="4.2363516"
     inkscape:window-width="1920"
     inkscape:window-height="1057"
     inkscape:window-x="-8"
     inkscape:window-y="-8"
     inkscape:window-maximized="1"
     inkscape:current-layer="svg1" />
  <defs
     id="defs1" />
  <path
     d="M -4.6730042e-8,0.52799998 H 2.739 q 0.748,0 1.232,0.209 0.484,0.198 0.759,0.51700002 0.286,0.308 0.396,0.704 0.11,0.385 0.11,0.748 0,0.363 -0.11,0.759 Q 5.016,3.85 4.73,4.169 4.455,4.477 3.971,4.686 3.487,4.884 2.739,4.884 H 1.056 V 8.316 H -4.6730042e-8 Z M 1.056,3.96 H 2.442 Q 2.75,3.96 3.047,3.916 3.355,3.861 3.586,3.729 3.828,3.597 3.971,3.355 4.114,3.102 4.114,2.706 4.114,2.31 3.971,2.068 3.828,1.815 3.586,1.683 3.355,1.551 3.047,1.507 2.75,1.452 2.442,1.452 H 1.056 Z M 5.9920043,3.74 q 0.418,-0.385 0.968,-0.572 0.55,-0.198 1.1,-0.198 0.572,0 0.979,0.143 0.418,0.143 0.682,0.385 0.264,0.242 0.3849997,0.561 0.132,0.308 0.132,0.649 V 7.37 q 0,0.275 0.011,0.506 0.011,0.231 0.033,0.44 H 9.4020043 q -0.033,-0.396 -0.033,-0.792 h -0.022 q -0.33,0.506 -0.781,0.715 -0.451,0.209 -1.045,0.209 -0.363,0 -0.693,-0.099 -0.33,-0.099 -0.583,-0.297 -0.242,-0.198 -0.385,-0.484 -0.143,-0.297 -0.143,-0.682 0,-0.506 0.22,-0.847 0.231,-0.341 0.616,-0.55 0.396,-0.22 0.913,-0.308 0.528,-0.099 1.122,-0.099 h 0.726 v -0.22 q 0,-0.198 -0.077,-0.396 -0.077,-0.198 -0.231,-0.352 -0.154,-0.165 -0.385,-0.253 -0.231,-0.099 -0.55,-0.099 -0.286,0 -0.506,0.055 -0.209,0.055 -0.385,0.143 -0.176,0.077 -0.319,0.187 -0.143,0.11 -0.275,0.209 z m 2.794,2.068 q -0.352,0 -0.726,0.044 -0.363,0.033 -0.671,0.143 -0.297,0.11 -0.495,0.308 -0.187,0.198 -0.187,0.506 0,0.451 0.297,0.649 0.308,0.198 0.825,0.198 0.407,0 0.693,-0.132 0.286,-0.143 0.462,-0.363 0.176,-0.22 0.253,-0.484 0.077,-0.275 0.077,-0.539 V 5.808 Z M 11.728995,3.102 h 0.99 v 0.803 h 0.022 q 0.099,-0.209 0.264,-0.374 0.165,-0.176 0.363,-0.297 0.209,-0.121 0.451,-0.187 0.242,-0.077 0.484,-0.077 0.242,0 0.44,0.066 l -0.044,1.067 q -0.121,-0.033 -0.242,-0.055 -0.121,-0.022 -0.242,-0.022 -0.726,0 -1.111,0.407 -0.385,0.407 -0.385,1.265 v 2.618 h -0.99 z m 4.04201,0.638 q 0.418,-0.385 0.968,-0.572 0.55,-0.198 1.1,-0.198 0.572,0 0.979,0.143 0.418,0.143 0.682,0.385 0.264,0.242 0.385,0.561 0.132,0.308 0.132,0.649 V 7.37 q 0,0.275 0.011,0.506 0.011,0.231 0.033,0.44 h -0.88 q -0.033,-0.396 -0.033,-0.792 h -0.022 q -0.33,0.506 -0.781,0.715 -0.451,0.209 -1.045,0.209 -0.363,0 -0.693,-0.099 -0.33,-0.099 -0.583,-0.297 -0.242,-0.198 -0.385,-0.484 -0.143,-0.297 -0.143,-0.682 0,-0.506 0.22,-0.847 0.231,-0.341 0.616,-0.55 0.396,-0.22 0.913,-0.308 0.528,-0.099 1.122,-0.099 h 0.726 v -0.22 q 0,-0.198 -0.077,-0.396 -0.077,-0.198 -0.231,-0.352 -0.154,-0.165 -0.385,-0.253 -0.231,-0.099 -0.55,-0.099 -0.286,0 -0.506,0.055 -0.209,0.055 -0.385,0.143 -0.176,0.077 -0.319,0.187 -0.143,0.11 -0.275,0.209 z m 2.794,2.068 q -0.352,0 -0.726,0.044 -0.363,0.033 -0.671,0.143 -0.297,0.11 -0.495,0.308 -0.187,0.198 -0.187,0.506 0,0.451 0.297,0.649 0.308,0.198 0.825,0.198 0.407,0 0.693,-0.132 0.286,-0.143 0.462,-0.363 0.176,-0.22 0.253,-0.484 0.077,-0.275 0.077,-0.539 v -0.33 z m 8.11799,2.508 h -0.99 V 7.568 h -0.022 q -0.286,0.418 -0.792,0.649 -0.495,0.231 -1.023,0.231 -0.605,0 -1.1,-0.209 -0.484,-0.209 -0.836,-0.583 -0.341,-0.374 -0.528,-0.869 -0.187,-0.495 -0.187,-1.078 0,-0.583 0.187,-1.078 0.187,-0.506 0.528,-0.869 0.352,-0.374 0.836,-0.583 0.495,-0.209 1.1,-0.209 0.561,0 1.056,0.242 0.495,0.231 0.759,0.638 h 0.022 V -1.525879e-8 h 0.99 z m -2.706,-0.792 q 0.396,0 0.715,-0.132 0.319,-0.143 0.539,-0.374 0.22,-0.242 0.341,-0.572 0.121,-0.341 0.121,-0.737 0,-0.396 -0.121,-0.726 -0.121,-0.341 -0.341,-0.572 -0.22,-0.242 -0.539,-0.374 -0.319,-0.143 -0.715,-0.143 -0.396,0 -0.715,0.143 -0.319,0.132 -0.539,0.374 -0.22,0.231 -0.341,0.572 -0.121,0.33 -0.121,0.726 0,0.396 0.121,0.737 0.121,0.33 0.341,0.572 0.22,0.231 0.539,0.374 0.319,0.132 0.715,0.132 z m 4.95,-1.452 q 0,0.341 0.143,0.627 0.154,0.275 0.396,0.473 0.242,0.198 0.561,0.308 0.319,0.11 0.66,0.11 0.462,0 0.803,-0.209 0.341,-0.22 0.627,-0.572 l 0.748,0.572 q -0.825,1.067 -2.31,1.067 -0.616,0 -1.122,-0.209 -0.495,-0.209 -0.847,-0.572 -0.341,-0.374 -0.528,-0.869 -0.187,-0.506 -0.187,-1.089 0,-0.583 0.198,-1.078 0.209,-0.506 0.561,-0.869 0.363,-0.374 0.858,-0.583 0.495,-0.209 1.078,-0.209 0.693,0 1.166,0.242 0.484,0.242 0.792,0.638 0.308,0.385 0.44,0.88 0.143,0.484 0.143,0.99 v 0.352 z m 3.124,-0.792 q -0.011,-0.33 -0.11,-0.605 -0.088,-0.275 -0.275,-0.473 -0.187,-0.209 -0.473,-0.319 -0.275,-0.121 -0.649,-0.121 -0.363,0 -0.671,0.143 -0.297,0.132 -0.506,0.352 -0.209,0.22 -0.33,0.495 -0.11,0.264 -0.11,0.528 z"
     id="text2"
     aria-label="Parade"
     style="fill:#ff0000;fill-opacity:1" />
</svg>
